<svg width="344" height="177" viewBox="0 0 344 177" fill="none" xmlns="http://www.w3.org/2000/svg">
<path d="M343.542 176.959H0.455472C0.334552 176.958 0.218707 176.91 0.133328 176.825C0.0479482 176.739 0 176.623 0 176.503C0 176.382 0.0479482 176.266 0.133328 176.181C0.218707 176.095 0.334552 176.047 0.455472 176.047H343.542C343.663 176.047 343.779 176.095 343.864 176.181C343.949 176.266 343.997 176.382 343.997 176.503C343.997 176.623 343.949 176.739 343.864 176.825C343.779 176.91 343.663 176.958 343.542 176.959Z" fill="#3F3D56"/>
<path d="M107.555 21.9991C108.925 21.9991 110.036 20.8905 110.036 19.523C110.036 18.1555 108.925 17.0469 107.555 17.0469C106.185 17.0469 105.074 18.1555 105.074 19.523C105.074 20.8905 106.185 21.9991 107.555 21.9991Z" fill="#F2F2F2"/>
<path d="M97.6645 21.9991C99.0347 21.9991 100.145 20.8905 100.145 19.523C100.145 18.1555 99.0347 17.0469 97.6645 17.0469C96.2944 17.0469 95.1836 18.1555 95.1836 19.523C95.1836 20.8905 96.2944 21.9991 97.6645 21.9991Z" fill="#F2F2F2"/>
<path d="M87.7817 21.9991C89.1519 21.9991 90.2627 20.8905 90.2627 19.523C90.2627 18.1555 89.1519 17.0469 87.7817 17.0469C86.4115 17.0469 85.3008 18.1555 85.3008 19.523C85.3008 20.8905 86.4115 21.9991 87.7817 21.9991Z" fill="#F2F2F2"/>
<path d="M77.8911 21.9991C79.2613 21.9991 80.3721 20.8905 80.3721 19.523C80.3721 18.1555 79.2613 17.0469 77.8911 17.0469C76.5209 17.0469 75.4102 18.1555 75.4102 19.523C75.4102 20.8905 76.5209 21.9991 77.8911 21.9991Z" fill="#F2F2F2"/>
<path d="M107.555 32.3351C108.925 32.3351 110.036 31.2265 110.036 29.8589C110.036 28.4914 108.925 27.3828 107.555 27.3828C106.185 27.3828 105.074 28.4914 105.074 29.8589C105.074 31.2265 106.185 32.3351 107.555 32.3351Z" fill="#F2F2F2"/>
<path d="M97.6645 32.3351C99.0347 32.3351 100.145 31.2265 100.145 29.8589C100.145 28.4914 99.0347 27.3828 97.6645 27.3828C96.2944 27.3828 95.1836 28.4914 95.1836 29.8589C95.1836 31.2265 96.2944 32.3351 97.6645 32.3351Z" fill="#F2F2F2"/>
<path d="M87.7817 32.3351C89.1519 32.3351 90.2627 31.2265 90.2627 29.8589C90.2627 28.4914 89.1519 27.3828 87.7817 27.3828C86.4115 27.3828 85.3008 28.4914 85.3008 29.8589C85.3008 31.2265 86.4115 32.3351 87.7817 32.3351Z" fill="#F2F2F2"/>
<path d="M77.8911 32.3351C79.2613 32.3351 80.3721 31.2265 80.3721 29.8589C80.3721 28.4914 79.2613 27.3828 77.8911 27.3828C76.5209 27.3828 75.4102 28.4914 75.4102 29.8589C75.4102 31.2265 76.5209 32.3351 77.8911 32.3351Z" fill="#F2F2F2"/>
<path d="M107.555 42.6749C108.925 42.6749 110.036 41.5663 110.036 40.1988C110.036 38.8313 108.925 37.7227 107.555 37.7227C106.185 37.7227 105.074 38.8313 105.074 40.1988C105.074 41.5663 106.185 42.6749 107.555 42.6749Z" fill="#F2F2F2"/>
<path d="M97.6645 42.6749C99.0347 42.6749 100.145 41.5663 100.145 40.1988C100.145 38.8313 99.0347 37.7227 97.6645 37.7227C96.2944 37.7227 95.1836 38.8313 95.1836 40.1988C95.1836 41.5663 96.2944 42.6749 97.6645 42.6749Z" fill="#F2F2F2"/>
<path d="M87.7817 42.6749C89.1519 42.6749 90.2627 41.5663 90.2627 40.1988C90.2627 38.8313 89.1519 37.7227 87.7817 37.7227C86.4115 37.7227 85.3008 38.8313 85.3008 40.1988C85.3008 41.5663 86.4115 42.6749 87.7817 42.6749Z" fill="#F2F2F2"/>
<path d="M77.8911 42.6749C79.2613 42.6749 80.3721 41.5663 80.3721 40.1988C80.3721 38.8313 79.2613 37.7227 77.8911 37.7227C76.5209 37.7227 75.4102 38.8313 75.4102 40.1988C75.4102 41.5663 76.5209 42.6749 77.8911 42.6749Z" fill="#F2F2F2"/>
<path d="M107.555 53.0147C108.925 53.0147 110.036 51.9061 110.036 50.5386C110.036 49.1711 108.925 48.0625 107.555 48.0625C106.185 48.0625 105.074 49.1711 105.074 50.5386C105.074 51.9061 106.185 53.0147 107.555 53.0147Z" fill="#F2F2F2"/>
<path d="M97.6645 53.0147C99.0347 53.0147 100.145 51.9061 100.145 50.5386C100.145 49.1711 99.0347 48.0625 97.6645 48.0625C96.2944 48.0625 95.1836 49.1711 95.1836 50.5386C95.1836 51.9061 96.2944 53.0147 97.6645 53.0147Z" fill="#F2F2F2"/>
<path d="M87.7817 53.0147C89.1519 53.0147 90.2627 51.9061 90.2627 50.5386C90.2627 49.1711 89.1519 48.0625 87.7817 48.0625C86.4115 48.0625 85.3008 49.1711 85.3008 50.5386C85.3008 51.9061 86.4115 53.0147 87.7817 53.0147Z" fill="#F2F2F2"/>
<path d="M77.8911 53.0147C79.2613 53.0147 80.3721 51.9061 80.3721 50.5386C80.3721 49.1711 79.2613 48.0625 77.8911 48.0625C76.5209 48.0625 75.4102 49.1711 75.4102 50.5386C75.4102 51.9061 76.5209 53.0147 77.8911 53.0147Z" fill="#F2F2F2"/>
<path d="M107.555 63.3507C108.925 63.3507 110.036 62.2421 110.036 60.8746C110.036 59.507 108.925 58.3984 107.555 58.3984C106.185 58.3984 105.074 59.507 105.074 60.8746C105.074 62.2421 106.185 63.3507 107.555 63.3507Z" fill="#F2F2F2"/>
<path d="M97.6645 63.3507C99.0347 63.3507 100.145 62.2421 100.145 60.8746C100.145 59.507 99.0347 58.3984 97.6645 58.3984C96.2944 58.3984 95.1836 59.507 95.1836 60.8746C95.1836 62.2421 96.2944 63.3507 97.6645 63.3507Z" fill="#F2F2F2"/>
<path d="M87.7817 63.3507C89.1519 63.3507 90.2627 62.2421 90.2627 60.8746C90.2627 59.507 89.1519 58.3984 87.7817 58.3984C86.4115 58.3984 85.3008 59.507 85.3008 60.8746C85.3008 62.2421 86.4115 63.3507 87.7817 63.3507Z" fill="#F2F2F2"/>
<path d="M77.8911 63.3507C79.2613 63.3507 80.3721 62.2421 80.3721 60.8746C80.3721 59.507 79.2613 58.3984 77.8911 58.3984C76.5209 58.3984 75.4102 59.507 75.4102 60.8746C75.4102 62.2421 76.5209 63.3507 77.8911 63.3507Z" fill="#F2F2F2"/>
<path d="M107.555 73.6905C108.925 73.6905 110.036 72.5819 110.036 71.2144C110.036 69.8469 108.925 68.7383 107.555 68.7383C106.185 68.7383 105.074 69.8469 105.074 71.2144C105.074 72.5819 106.185 73.6905 107.555 73.6905Z" fill="#F2F2F2"/>
<path d="M97.6645 73.6905C99.0347 73.6905 100.145 72.5819 100.145 71.2144C100.145 69.8469 99.0347 68.7383 97.6645 68.7383C96.2944 68.7383 95.1836 69.8469 95.1836 71.2144C95.1836 72.5819 96.2944 73.6905 97.6645 73.6905Z" fill="#F2F2F2"/>
<path d="M87.7817 73.6905C89.1519 73.6905 90.2627 72.5819 90.2627 71.2144C90.2627 69.8469 89.1519 68.7383 87.7817 68.7383C86.4115 68.7383 85.3008 69.8469 85.3008 71.2144C85.3008 72.5819 86.4115 73.6905 87.7817 73.6905Z" fill="#F2F2F2"/>
<path d="M77.8911 73.6905C79.2613 73.6905 80.3721 72.5819 80.3721 71.2144C80.3721 69.8469 79.2613 68.7383 77.8911 68.7383C76.5209 68.7383 75.4102 69.8469 75.4102 71.2144C75.4102 72.5819 76.5209 73.6905 77.8911 73.6905Z" fill="#F2F2F2"/>
<path d="M85.7539 138.763V139.528C85.755 140.798 86.2606 142.014 87.1597 142.912C88.0588 143.809 89.2779 144.314 90.5494 144.315H125.077C126.349 144.314 127.568 143.81 128.467 142.912C129.367 142.015 129.872 140.798 129.872 139.528V138.763C129.875 137.643 129.481 136.558 128.76 135.7C128.52 135.415 128.248 135.158 127.95 134.934C127.95 134.934 108.968 134.505 108.968 133.977H90.5494C89.2781 133.978 88.0594 134.483 87.1604 135.38C86.2615 136.278 85.7557 137.494 85.7539 138.763Z" fill="#CCCCCC"/>
<path d="M110.589 144.125H105.602V176.288H110.589V144.125Z" fill="#CCCCCC"/>
<path d="M124.78 176.111C124.78 176.649 117.222 176.319 107.9 176.319C98.577 176.319 91.0195 176.649 91.0195 176.111C91.0195 175.573 98.577 171.309 107.9 171.309C117.222 171.309 124.78 175.573 124.78 176.111Z" fill="#CCCCCC"/>
<path d="M117.92 138.112C118.28 137.629 118.53 137.074 118.651 136.485C118.773 135.897 118.764 135.288 118.625 134.703C118.486 134.118 118.22 133.571 117.846 133.099C117.471 132.628 116.998 132.244 116.459 131.975L105.889 96.0273L97.8398 99.9618L110.761 134.06C110.368 134.994 110.332 136.038 110.659 136.997C110.987 137.955 111.655 138.76 112.537 139.259C113.42 139.759 114.455 139.918 115.447 139.706C116.439 139.495 117.319 138.927 117.92 138.112L117.92 138.112Z" fill="#A0616A"/>
<path d="M108.286 102.028L99.2769 104.462C99.0206 104.531 98.7523 104.544 98.4904 104.501C98.2284 104.457 97.9789 104.358 97.759 104.209C97.539 104.061 97.3536 103.867 97.2156 103.64C97.0775 103.414 96.9899 103.16 96.9588 102.897L95.8699 93.6744C95.5224 92.3635 95.7099 90.9686 96.3913 89.7955C97.0727 88.6223 98.1924 87.7667 99.5048 87.4163C100.817 87.0658 102.215 87.249 103.393 87.9258C104.57 88.6026 105.43 89.7177 105.785 91.0266L109.497 99.5099C109.603 99.7528 109.655 100.016 109.651 100.281C109.646 100.546 109.584 100.807 109.469 101.045C109.354 101.284 109.189 101.496 108.985 101.665C108.78 101.835 108.542 101.958 108.286 102.028H108.286Z" fill="#FD541A"/>
<path d="M120.274 172.339L124.978 172.338L127.215 160.164H120.273L120.274 172.339Z" fill="#A0616A"/>
<path d="M119.082 170.809L128.345 170.809H128.345C129.12 170.809 129.888 170.961 130.604 171.257C131.32 171.553 131.971 171.987 132.519 172.534C133.067 173.081 133.502 173.731 133.798 174.445C134.095 175.16 134.248 175.926 134.248 176.7V176.891L119.082 176.892L119.082 170.809Z" fill="#2F2E41"/>
<path d="M125.739 165.813C125.685 165.813 125.63 165.81 125.574 165.805L119.065 165.332C118.802 165.307 118.548 165.223 118.323 165.085C118.097 164.947 117.907 164.76 117.765 164.537C117.624 164.313 117.536 164.061 117.508 163.799C117.48 163.536 117.513 163.271 117.604 163.023L126.315 143.49C126.377 143.316 126.403 143.131 126.39 142.947C126.377 142.762 126.326 142.582 126.24 142.419C126.154 142.253 126.034 142.107 125.888 141.991C125.742 141.875 125.573 141.791 125.391 141.745C121.295 140.676 110.786 137.831 101.688 134.501C97.79 133.075 95.3352 131.013 94.3914 128.374C93.1472 124.895 94.9879 121.722 95.0668 121.589L95.1285 121.484L103.689 122.261L112.97 123.049L133.308 133.934C135.012 134.853 136.307 136.38 136.934 138.21C137.561 140.039 137.474 142.037 136.691 143.806L127.315 164.792C127.179 165.095 126.958 165.354 126.679 165.535C126.399 165.716 126.073 165.813 125.739 165.813Z" fill="#2F2E41"/>
<path d="M105.173 83.617C110.377 83.617 114.595 79.4066 114.595 74.2128C114.595 69.019 110.377 64.8086 105.173 64.8086C99.9686 64.8086 95.75 69.019 95.75 74.2128C95.75 79.4066 99.9686 83.617 105.173 83.617Z" fill="#A0616A"/>
<path d="M117.591 171.956L122.294 171.956L124.532 159.781H117.59L117.591 171.956Z" fill="#A0616A"/>
<path d="M116.395 170.422L125.657 170.422H125.657C126.433 170.422 127.2 170.574 127.916 170.87C128.633 171.166 129.283 171.6 129.831 172.147C130.38 172.694 130.814 173.344 131.111 174.059C131.408 174.773 131.56 175.539 131.56 176.313V176.505L116.395 176.505L116.395 170.422Z" fill="#2F2E41"/>
<path d="M123.052 166.961C122.997 166.961 122.942 166.959 122.887 166.953L116.378 166.48C116.115 166.456 115.861 166.372 115.635 166.234C115.41 166.096 115.219 165.908 115.078 165.685C114.937 165.462 114.849 165.209 114.821 164.947C114.793 164.685 114.825 164.419 114.916 164.172L123.628 144.639C123.69 144.465 123.715 144.279 123.702 144.095C123.689 143.911 123.638 143.731 123.552 143.567C123.467 143.401 123.347 143.256 123.2 143.139C123.054 143.023 122.885 142.939 122.704 142.893C118.608 141.825 108.098 138.979 99.0003 135.65C95.1025 134.223 92.6477 132.162 91.7039 129.523C90.4597 126.043 92.3004 122.87 92.3793 122.737L92.441 122.633L101.002 123.409L110.283 124.197L130.621 135.082C132.325 136.002 133.619 137.529 134.246 139.358C134.873 141.188 134.787 143.186 134.004 144.955L124.627 165.94C124.492 166.244 124.271 166.502 123.991 166.683C123.711 166.865 123.385 166.961 123.052 166.961Z" fill="#2F2E41"/>
<path d="M108.08 88.946L98.1057 85.5C98.1057 85.5 91.844 90.3015 94.8521 102.213C96.4225 108.359 95.9651 114.848 93.5477 120.714C93.2566 121.44 92.9211 122.147 92.543 122.832C92.543 122.832 103.669 136.233 114.027 126.278L109.999 106.942C109.999 106.942 116.329 94.1151 108.08 88.946Z" fill="#2F2E41"/>
<path d="M106.346 83.9326C105.005 81.9292 103.947 79.1512 105.423 77.245C106.881 75.3634 109.755 75.6406 111.987 74.808C115.096 73.6484 116.9 70.003 116.337 66.7384C115.775 63.4737 113.149 60.7674 110.021 59.6601C106.893 58.5527 103.365 58.9129 100.302 60.188C96.5313 61.7578 93.2965 64.7943 91.94 68.6408C90.5836 72.4873 91.3087 77.1058 94.1227 80.0623C97.1395 83.232 101.874 84.0768 106.254 84.0255" fill="#2F2E41"/>
<path d="M97.5777 66.8474C95.8879 68.2204 93.3096 67.6105 91.4957 66.4056C89.6817 65.2006 88.2098 63.4848 86.2471 62.54C82.787 60.8744 78.6035 61.9817 75.236 63.8266C71.8684 65.6715 68.8832 68.2202 65.3261 69.668C61.769 71.1158 57.2298 71.1874 54.5363 68.4536C53.8734 70.3703 53.8193 72.4445 54.3811 74.393C54.943 76.3416 56.0935 78.0697 57.6758 79.3415C59.258 80.6134 61.1949 81.367 63.2222 81.4996C65.2494 81.6323 67.2683 81.1374 69.0034 80.0826C72.9009 77.7131 75.0538 72.745 79.4253 71.4372C81.8443 70.7135 84.4419 71.2964 86.8868 71.9277C89.3316 72.559 91.8809 73.2412 94.3482 72.7037C96.8155 72.1663 99.1234 69.9534 98.8095 67.4524L97.5777 66.8474Z" fill="#2F2E41"/>
<path d="M128.252 155.457C127.254 148.989 127.254 142.407 128.252 135.939C128.315 135.554 128.514 135.204 128.811 134.951C129.109 134.699 129.487 134.559 129.878 134.559H145.174C145.422 134.558 145.667 134.613 145.89 134.721C146.113 134.829 146.309 134.987 146.462 135.181C146.618 135.379 146.727 135.609 146.781 135.855C146.834 136.101 146.831 136.355 146.771 136.6C145.34 142.581 145.34 148.815 146.771 154.797C146.831 155.041 146.834 155.296 146.781 155.542C146.727 155.787 146.618 156.018 146.462 156.215C146.309 156.41 146.113 156.567 145.89 156.675C145.667 156.783 145.422 156.839 145.174 156.838H129.878C129.487 156.837 129.109 156.698 128.811 156.445C128.514 156.192 128.315 155.842 128.252 155.457Z" fill="#FD541A"/>
<path d="M140.467 144.008H132.44C132.135 144.007 131.842 143.886 131.627 143.671C131.411 143.456 131.289 143.164 131.289 142.859V142.41C131.289 142.106 131.411 141.814 131.627 141.599C131.842 141.383 132.135 141.262 132.44 141.262H140.467C140.772 141.262 141.065 141.383 141.281 141.599C141.496 141.814 141.618 142.106 141.618 142.41V142.859C141.618 143.164 141.496 143.456 141.281 143.671C141.065 143.886 140.772 144.007 140.467 144.008Z" fill="white"/>
<path d="M140.467 148.735H132.44C132.135 148.734 131.842 148.613 131.627 148.398C131.411 148.182 131.289 147.89 131.289 147.586V147.137C131.289 146.832 131.411 146.54 131.627 146.325C131.842 146.11 132.135 145.989 132.44 145.988H140.467C140.772 145.989 141.065 146.11 141.281 146.325C141.496 146.54 141.618 146.832 141.618 147.137V147.586C141.618 147.89 141.496 148.182 141.281 148.398C141.065 148.613 140.772 148.734 140.467 148.735Z" fill="white"/>
<path d="M132.274 136.387C132.502 135.83 132.605 135.23 132.576 134.629C132.546 134.029 132.385 133.442 132.104 132.91C131.823 132.378 131.428 131.915 130.948 131.552C130.467 131.189 129.913 130.935 129.324 130.809L110.09 98.6367L103.281 104.453L124.329 134.249C124.182 135.25 124.408 136.271 124.965 137.117C125.522 137.964 126.371 138.576 127.35 138.84C128.329 139.104 129.372 138.999 130.279 138.547C131.187 138.095 131.897 137.326 132.274 136.387L132.274 136.387Z" fill="#A0616A"/>
<path d="M113.914 103.854L105.8 108.458C105.569 108.589 105.312 108.668 105.048 108.691C104.783 108.715 104.517 108.681 104.267 108.592C104.017 108.503 103.789 108.361 103.598 108.176C103.408 107.992 103.26 107.768 103.164 107.521L99.8005 98.862C99.1359 97.6793 98.9683 96.2819 99.3344 94.9762C99.7005 93.6704 100.57 92.5627 101.754 91.8961C102.937 91.2295 104.336 91.0583 105.646 91.42C106.955 91.7817 108.067 92.6469 108.739 93.8258L114.456 101.115C114.619 101.323 114.736 101.565 114.798 101.823C114.859 102.08 114.865 102.348 114.813 102.608C114.762 102.868 114.655 103.114 114.5 103.329C114.344 103.544 114.144 103.723 113.914 103.854Z" fill="#2F2E41"/>
<path d="M200.243 115.152H44.4858C43.8245 115.152 43.1902 115.415 42.7226 115.881C42.2549 116.348 41.9922 116.981 41.9922 117.641C41.9922 118.301 42.2549 118.934 42.7226 119.401C43.1902 119.868 43.8245 120.13 44.4858 120.13H48.8977V174.309C48.8977 174.969 49.1604 175.602 49.6281 176.069C50.0957 176.536 50.73 176.798 51.3914 176.798C52.0527 176.798 52.687 176.536 53.1546 176.069C53.6223 175.602 53.885 174.969 53.885 174.309V124.912L81.8412 175.484C82.1726 176.054 82.7172 176.47 83.3553 176.64C83.9935 176.81 84.6731 176.72 85.2451 176.39C85.8171 176.061 86.2348 175.518 86.4063 174.882C86.5779 174.245 86.4895 173.567 86.1604 172.995L56.9363 120.13H190.461V120.162L161.255 172.995C160.924 173.567 160.834 174.246 161.005 174.883C161.177 175.521 161.595 176.065 162.167 176.395C162.74 176.725 163.421 176.814 164.059 176.643C164.698 176.472 165.243 176.055 165.574 175.484L190.461 130.464V174.309C190.461 174.969 190.723 175.602 191.191 176.069C191.659 176.536 192.293 176.798 192.954 176.798C193.616 176.798 194.25 176.536 194.718 176.069C195.185 175.602 195.448 174.969 195.448 174.309V121.442L196.173 120.13H200.243C200.905 120.13 201.539 119.868 202.007 119.401C202.474 118.934 202.737 118.301 202.737 117.641C202.737 116.981 202.474 116.348 202.007 115.881C201.539 115.415 200.905 115.152 200.243 115.152Z" fill="#3F3D56"/>
<path d="M135.795 113.625H105.487C104.746 113.625 104.145 114.225 104.145 114.965C104.145 115.705 104.746 116.305 105.487 116.305H135.795C136.536 116.305 137.138 115.705 137.138 114.965C137.138 114.225 136.536 113.625 135.795 113.625Z" fill="#CCCCCC"/>
<path d="M156.126 116.302H121.982C121.321 116.301 120.687 116.039 120.219 115.572C119.752 115.105 119.489 114.473 119.488 113.813V95.0513C119.489 94.3915 119.752 93.7588 120.219 93.2923C120.687 92.8257 121.321 92.5632 121.982 92.5625H156.126C156.787 92.5632 157.421 92.8257 157.888 93.2923C158.356 93.7588 158.619 94.3915 158.62 95.0513V113.813C158.619 114.473 158.356 115.105 157.888 115.572C157.421 116.039 156.787 116.301 156.126 116.302Z" fill="#CCCCCC"/>
<path d="M139.056 106.731C140.327 106.731 141.358 105.703 141.358 104.434C141.358 103.165 140.327 102.137 139.056 102.137C137.784 102.137 136.754 103.165 136.754 104.434C136.754 105.703 137.784 106.731 139.056 106.731Z" fill="white"/>
<path d="M182.188 70.0774V2.87989C182.188 2.11636 182.493 1.38435 183.034 0.844458C183.575 0.304561 184.308 0.000868489 185.073 0H238.295C239.06 0.000868489 239.793 0.304561 240.334 0.844458C240.875 1.38435 241.179 2.11636 241.18 2.87989V70.0774C241.179 70.8409 240.875 71.5729 240.334 72.1128C239.793 72.6527 239.06 72.9564 238.295 72.9573H185.073C184.308 72.9564 183.575 72.6527 183.034 72.1128C182.493 71.5729 182.188 70.8409 182.188 70.0774ZM185.073 0.639978C184.478 0.640644 183.908 0.876849 183.487 1.29677C183.066 1.71669 182.829 2.28603 182.829 2.87989V70.0774C182.829 70.6712 183.066 71.2406 183.487 71.6605C183.908 72.0804 184.478 72.3166 185.073 72.3173H238.295C238.89 72.3166 239.46 72.0804 239.881 71.6605C240.302 71.2406 240.538 70.6712 240.539 70.0774V2.87989C240.538 2.28603 240.302 1.71669 239.881 1.29677C239.46 0.876849 238.89 0.640644 238.295 0.639978H185.073Z" fill="#E6E6E6"/>
<path d="M214.664 30.8627V17.0649C214.664 16.6832 214.817 16.3172 215.087 16.0472C215.358 15.7773 215.724 15.6254 216.107 15.625H227.822C228.205 15.6254 228.571 15.7773 228.842 16.0472C229.112 16.3172 229.264 16.6832 229.265 17.0649V30.8627C229.264 31.2445 229.112 31.6105 228.842 31.8804C228.571 32.1504 228.205 32.3022 227.822 32.3027H216.107C215.724 32.3022 215.358 32.1504 215.087 31.8804C214.817 31.6105 214.664 31.2445 214.664 30.8627Z" fill="#FD541A"/>
<path d="M191.902 37.2612V23.4634C191.903 23.0816 192.055 22.7156 192.325 22.4457C192.596 22.1757 192.963 22.0239 193.345 22.0234H205.06C205.443 22.0239 205.81 22.1757 206.08 22.4457C206.35 22.7156 206.503 23.0816 206.503 23.4634V37.2612C206.503 37.6429 206.35 38.0089 206.08 38.2789C205.81 38.5488 205.443 38.7007 205.06 38.7011H193.345C192.963 38.7007 192.596 38.5488 192.325 38.2789C192.055 38.0089 191.903 37.6429 191.902 37.2612Z" fill="#CCCCCC"/>
<path d="M210.18 56.7807V42.9829C210.18 42.6011 210.332 42.2351 210.603 41.9652C210.873 41.6952 211.24 41.5434 211.622 41.543H223.338C223.72 41.5434 224.087 41.6952 224.357 41.9652C224.628 42.2351 224.78 42.6011 224.78 42.9829V56.7807C224.78 57.1625 224.628 57.5285 224.357 57.7984C224.087 58.0684 223.72 58.2202 223.338 58.2206H211.622C211.24 58.2202 210.873 58.0684 210.603 57.7984C210.332 57.5285 210.18 57.1625 210.18 56.7807Z" fill="#FF6584"/>
<path d="M299.524 7.00302C300.894 7.00302 302.005 5.89442 302.005 4.5269C302.005 3.15938 300.894 2.05078 299.524 2.05078C298.154 2.05078 297.043 3.15938 297.043 4.5269C297.043 5.89442 298.154 7.00302 299.524 7.00302Z" fill="#F2F2F2"/>
<path d="M299.524 16.8741C300.894 16.8741 302.005 15.7655 302.005 14.398C302.005 13.0305 300.894 11.9219 299.524 11.9219C298.154 11.9219 297.043 13.0305 297.043 14.398C297.043 15.7655 298.154 16.8741 299.524 16.8741Z" fill="#F2F2F2"/>
<path d="M299.524 26.7413C300.894 26.7413 302.005 25.6327 302.005 24.2652C302.005 22.8977 300.894 21.7891 299.524 21.7891C298.154 21.7891 297.043 22.8977 297.043 24.2652C297.043 25.6327 298.154 26.7413 299.524 26.7413Z" fill="#F2F2F2"/>
<path d="M299.524 36.6085C300.894 36.6085 302.005 35.4999 302.005 34.1324C302.005 32.7648 300.894 31.6562 299.524 31.6562C298.154 31.6562 297.043 32.7648 297.043 34.1324C297.043 35.4999 298.154 36.6085 299.524 36.6085Z" fill="#F2F2F2"/>
<path d="M289.165 7.00302C290.535 7.00302 291.646 5.89442 291.646 4.5269C291.646 3.15938 290.535 2.05078 289.165 2.05078C287.794 2.05078 286.684 3.15938 286.684 4.5269C286.684 5.89442 287.794 7.00302 289.165 7.00302Z" fill="#F2F2F2"/>
<path d="M289.165 16.8741C290.535 16.8741 291.646 15.7655 291.646 14.398C291.646 13.0305 290.535 11.9219 289.165 11.9219C287.794 11.9219 286.684 13.0305 286.684 14.398C286.684 15.7655 287.794 16.8741 289.165 16.8741Z" fill="#F2F2F2"/>
<path d="M289.165 26.7413C290.535 26.7413 291.646 25.6327 291.646 24.2652C291.646 22.8977 290.535 21.7891 289.165 21.7891C287.794 21.7891 286.684 22.8977 286.684 24.2652C286.684 25.6327 287.794 26.7413 289.165 26.7413Z" fill="#F2F2F2"/>
<path d="M289.165 36.6085C290.535 36.6085 291.646 35.4999 291.646 34.1324C291.646 32.7648 290.535 31.6562 289.165 31.6562C287.794 31.6562 286.684 32.7648 286.684 34.1324C286.684 35.4999 287.794 36.6085 289.165 36.6085Z" fill="#F2F2F2"/>
<path d="M278.805 7.00302C280.175 7.00302 281.286 5.89442 281.286 4.5269C281.286 3.15938 280.175 2.05078 278.805 2.05078C277.435 2.05078 276.324 3.15938 276.324 4.5269C276.324 5.89442 277.435 7.00302 278.805 7.00302Z" fill="#F2F2F2"/>
<path d="M278.805 16.8741C280.175 16.8741 281.286 15.7655 281.286 14.398C281.286 13.0305 280.175 11.9219 278.805 11.9219C277.435 11.9219 276.324 13.0305 276.324 14.398C276.324 15.7655 277.435 16.8741 278.805 16.8741Z" fill="#F2F2F2"/>
<path d="M278.805 26.7413C280.175 26.7413 281.286 25.6327 281.286 24.2652C281.286 22.8977 280.175 21.7891 278.805 21.7891C277.435 21.7891 276.324 22.8977 276.324 24.2652C276.324 25.6327 277.435 26.7413 278.805 26.7413Z" fill="#F2F2F2"/>
<path d="M278.805 36.6085C280.175 36.6085 281.286 35.4999 281.286 34.1324C281.286 32.7648 280.175 31.6562 278.805 31.6562C277.435 31.6562 276.324 32.7648 276.324 34.1324C276.324 35.4999 277.435 36.6085 278.805 36.6085Z" fill="#F2F2F2"/>
<path d="M268.45 7.00302C269.82 7.00302 270.931 5.89442 270.931 4.5269C270.931 3.15938 269.82 2.05078 268.45 2.05078C267.08 2.05078 265.969 3.15938 265.969 4.5269C265.969 5.89442 267.08 7.00302 268.45 7.00302Z" fill="#F2F2F2"/>
<path d="M268.45 16.8741C269.82 16.8741 270.931 15.7655 270.931 14.398C270.931 13.0305 269.82 11.9219 268.45 11.9219C267.08 11.9219 265.969 13.0305 265.969 14.398C265.969 15.7655 267.08 16.8741 268.45 16.8741Z" fill="#F2F2F2"/>
<path d="M268.45 26.7413C269.82 26.7413 270.931 25.6327 270.931 24.2652C270.931 22.8977 269.82 21.7891 268.45 21.7891C267.08 21.7891 265.969 22.8977 265.969 24.2652C265.969 25.6327 267.08 26.7413 268.45 26.7413Z" fill="#F2F2F2"/>
<path d="M268.45 36.6085C269.82 36.6085 270.931 35.4999 270.931 34.1324C270.931 32.7648 269.82 31.6562 268.45 31.6562C267.08 31.6562 265.969 32.7648 265.969 34.1324C265.969 35.4999 267.08 36.6085 268.45 36.6085Z" fill="#F2F2F2"/>
<path d="M258.09 7.00302C259.461 7.00302 260.571 5.89442 260.571 4.5269C260.571 3.15938 259.461 2.05078 258.09 2.05078C256.72 2.05078 255.609 3.15938 255.609 4.5269C255.609 5.89442 256.72 7.00302 258.09 7.00302Z" fill="#F2F2F2"/>
<path d="M258.09 16.8741C259.461 16.8741 260.571 15.7655 260.571 14.398C260.571 13.0305 259.461 11.9219 258.09 11.9219C256.72 11.9219 255.609 13.0305 255.609 14.398C255.609 15.7655 256.72 16.8741 258.09 16.8741Z" fill="#F2F2F2"/>
<path d="M258.09 26.7413C259.461 26.7413 260.571 25.6327 260.571 24.2652C260.571 22.8977 259.461 21.7891 258.09 21.7891C256.72 21.7891 255.609 22.8977 255.609 24.2652C255.609 25.6327 256.72 26.7413 258.09 26.7413Z" fill="#F2F2F2"/>
<path d="M258.09 36.6085C259.461 36.6085 260.571 35.4999 260.571 34.1324C260.571 32.7648 259.461 31.6562 258.09 31.6562C256.72 31.6562 255.609 32.7648 255.609 34.1324C255.609 35.4999 256.72 36.6085 258.09 36.6085Z" fill="#F2F2F2"/>
<path d="M247.731 7.00302C249.101 7.00302 250.212 5.89442 250.212 4.5269C250.212 3.15938 249.101 2.05078 247.731 2.05078C246.361 2.05078 245.25 3.15938 245.25 4.5269C245.25 5.89442 246.361 7.00302 247.731 7.00302Z" fill="#F2F2F2"/>
<path d="M247.731 16.8741C249.101 16.8741 250.212 15.7655 250.212 14.398C250.212 13.0305 249.101 11.9219 247.731 11.9219C246.361 11.9219 245.25 13.0305 245.25 14.398C245.25 15.7655 246.361 16.8741 247.731 16.8741Z" fill="#F2F2F2"/>
<path d="M247.731 26.7413C249.101 26.7413 250.212 25.6327 250.212 24.2652C250.212 22.8977 249.101 21.7891 247.731 21.7891C246.361 21.7891 245.25 22.8977 245.25 24.2652C245.25 25.6327 246.361 26.7413 247.731 26.7413Z" fill="#F2F2F2"/>
<path d="M247.731 36.6085C249.101 36.6085 250.212 35.4999 250.212 34.1324C250.212 32.7648 249.101 31.6562 247.731 31.6562C246.361 31.6562 245.25 32.7648 245.25 34.1324C245.25 35.4999 246.361 36.6085 247.731 36.6085Z" fill="#F2F2F2"/>
<path d="M257.728 92.3749C257.524 91.8172 257.441 91.2229 257.484 90.631C257.526 90.039 257.694 89.4627 257.975 88.9398C258.256 88.4169 258.645 87.9593 259.116 87.5969C259.587 87.2345 260.129 86.9754 260.708 86.8368C260.891 86.7938 261.077 86.7635 261.264 86.7463L270.588 70.4356L268.233 66.399L274.094 61.8867L278.577 68.1018C279.112 68.8489 279.391 69.7482 279.373 70.6662C279.355 71.5841 279.041 72.4718 278.477 73.1975L265.677 89.5524C265.724 89.6823 265.764 89.8145 265.797 89.9485C265.935 90.5257 265.95 91.1256 265.841 91.709C265.731 92.2923 265.499 92.846 265.16 93.3336C264.821 93.8213 264.383 94.232 263.873 94.5387C263.364 94.8455 262.796 95.0414 262.206 95.1136C262.034 95.1352 261.862 95.146 261.689 95.146C260.824 95.1432 259.981 94.8761 259.273 94.3807C258.564 93.8853 258.025 93.1853 257.728 92.3749Z" fill="#FFB8B8"/>
<path d="M239.535 172.642L234.831 172.641L232.594 154.535L239.535 154.536L239.535 172.642Z" fill="#FFB8B8"/>
<path d="M231.473 171.301H240.544V177.001H225.762C225.762 176.252 225.909 175.511 226.196 174.82C226.483 174.128 226.904 173.5 227.434 172.97C227.965 172.441 228.594 172.021 229.287 171.735C229.98 171.448 230.723 171.301 231.473 171.301Z" fill="#2F2E41"/>
<path d="M278.285 172.642L273.581 172.641L271.344 154.535L278.285 154.536L278.285 172.642Z" fill="#FFB8B8"/>
<path d="M270.219 171.301H279.29V177.001H264.508C264.508 176.252 264.656 175.511 264.943 174.82C265.23 174.128 265.65 173.5 266.181 172.97C266.711 172.441 267.34 172.021 268.033 171.735C268.726 171.448 269.469 171.301 270.219 171.301Z" fill="#2F2E41"/>
<path d="M275.399 62.7695L264.839 66.7743L262.261 59.627C261.919 58.678 261.924 57.6387 262.275 56.6928C262.626 55.747 263.301 54.9555 264.18 54.4582C265.07 53.9551 266.11 53.7861 267.113 53.9816C268.117 54.1771 269.017 54.7243 269.652 55.5243L275.399 62.7695Z" fill="#FD541A"/>
<path d="M240.341 157.937L231.485 155.921C231.014 155.813 230.601 155.531 230.33 155.132C230.059 154.733 229.949 154.246 230.022 153.769C233.576 131.29 236.995 118.126 245.805 101.408C245.928 101.096 247.304 94.7695 248.202 90.5779C248.192 90.1161 248.35 89.6663 248.647 89.3124C248.945 88.9585 249.361 88.7246 249.819 88.6543L266.332 86.1178C266.581 86.0316 266.844 85.9921 267.108 86.0013L267.273 86.0325L267.271 86.1946C267.268 86.3622 267.101 86.3878 267.039 86.3975L266.819 86.4311C267.07 86.5475 267.299 86.7035 267.5 86.8931C274.735 95.5785 278.498 124.049 283.276 155.501C283.303 155.757 283.272 156.015 283.185 156.256C283.099 156.498 282.959 156.717 282.776 156.898C282.603 157.086 282.394 157.238 282.161 157.343C281.927 157.449 281.675 157.506 281.419 157.511L270.868 157.768C270.405 157.778 269.954 157.62 269.598 157.323C269.243 157.026 269.008 156.61 268.937 156.152L261.83 115.164C261.781 114.844 261.631 114.548 261.402 114.319C261.173 114.089 260.876 113.939 260.555 113.89C260.235 113.841 259.907 113.895 259.619 114.044C259.331 114.194 259.098 114.431 258.955 114.722C253.222 126.375 247.875 136.453 242.61 156.559C242.505 156.967 242.268 157.328 241.935 157.586C241.602 157.845 241.193 157.985 240.771 157.986C240.626 157.985 240.482 157.969 240.341 157.937Z" fill="#2F2E41"/>
<path d="M248.54 91.0877C248.318 90.9308 248.132 90.7285 247.994 90.4942C247.856 90.2599 247.77 89.999 247.741 89.7289C246.389 77.128 247.331 67.2669 250.621 59.5819C251.2 58.2565 252.073 57.0793 253.174 56.139C254.275 55.1986 255.575 54.5195 256.976 54.1527L265.512 53.7227L265.556 53.744C267.482 54.6856 269.053 56.2216 270.036 58.1244C271.018 60.0271 271.361 62.1953 271.011 64.3073C268.266 71.5299 265.967 79.0498 267.72 85.116C267.794 85.3697 267.815 85.6355 267.783 85.8976C267.751 86.1596 267.667 86.4126 267.535 86.6413C267.406 86.8623 267.234 87.0548 267.029 87.2068C266.823 87.3589 266.588 87.4673 266.339 87.5254L250.081 91.3853C249.818 91.4479 249.544 91.4536 249.279 91.4023C249.013 91.351 248.761 91.2437 248.54 91.0877Z" fill="#FD541A"/>
<path d="M244.865 72.9997L228.494 60.1093C228.363 60.1551 228.23 60.1941 228.096 60.2263C227.518 60.3612 226.918 60.3733 226.336 60.2617C225.753 60.1501 225.2 59.9174 224.713 59.5787C224.223 59.2397 223.811 58.8002 223.505 58.2895C223.199 57.7789 223.006 57.2089 222.938 56.6176C222.829 55.6725 223.042 54.718 223.544 53.9091C224.046 53.1002 224.807 52.4843 225.704 52.1615C226.264 51.9611 226.859 51.881 227.452 51.9264C228.045 51.9719 228.622 52.1418 229.144 52.4251C229.667 52.7084 230.124 53.0987 230.484 53.5704C230.845 54.0421 231.102 54.5846 231.238 55.1623C231.281 55.3454 231.31 55.5312 231.326 55.7184L247.624 65.102L251.68 62.7716L256.172 68.6421L249.875 73.1216C249.138 73.6417 248.252 73.9107 247.35 73.8887C246.447 73.8668 245.576 73.555 244.865 72.9997H244.865Z" fill="#FFB8B8"/>
<path d="M258.169 70.4721L248.828 64.1324L253.218 57.927C253.801 57.103 254.657 56.5112 255.635 56.2561C256.613 56.0011 257.649 56.0993 258.562 56.5333C259.485 56.9723 260.22 57.7262 260.634 58.6589C261.049 59.5915 261.116 60.6415 260.823 61.619L258.169 70.4721Z" fill="#FD541A"/>
<path d="M262.661 50.5389C267.865 50.5389 272.083 46.3285 272.083 41.1347C272.083 35.9409 267.865 31.7305 262.661 31.7305C257.457 31.7305 253.238 35.9409 253.238 41.1347C253.238 46.3285 257.457 50.5389 262.661 50.5389Z" fill="#FFB8B8"/>
<path d="M259.207 39.7325C256.785 41.3868 253.605 43.0873 251.132 41.3256C249.507 40.1689 248.996 38.0268 249.654 36.1471C250.839 32.7667 254.093 31.2785 257.205 30.1377C261.25 28.6548 265.654 27.475 269.831 28.537C274.007 29.5991 277.697 33.6344 276.943 37.8692C276.337 41.2748 273.119 44.1084 273.575 47.5371C274.035 50.9878 277.924 52.8041 281.356 53.4208C284.789 54.0375 288.63 54.2357 291.097 56.6965C294.244 59.8358 293.458 65.4468 290.497 68.7613C287.536 72.0757 283.067 73.5781 278.737 74.5994C273 75.9527 266.795 76.6638 261.346 74.418C255.897 72.1722 251.657 66.1268 253.235 60.4579C253.902 58.0634 255.473 56.0397 256.991 54.0695C258.508 52.0994 260.045 50.0392 260.624 47.6221C261.107 45.6078 260.75 43.2691 259.411 41.7582C259.168 41.4937 259.015 41.159 258.974 40.8022C258.933 40.4455 259.006 40.0849 259.183 39.7723L259.207 39.7325Z" fill="#2F2E41"/>
</svg>
